<svg xmlns="http://www.w3.org/2000/svg" viewBox="0 0 303.08 203.97"><defs><style>.cls-1{fill:none;stroke:#231f20;stroke-miterlimit:10;stroke-width:2px;}.cls-2{fill:#8ccecc;}.cls-3{fill:#f9bab8;}</style></defs><g id="Layer_2" data-name="Layer 2"><g id="Layer_1-2" data-name="Layer 1"><path class="cls-1" d="M98.59,203H1.06L7,100.28a24.1,24.1,0,0,1,24.1-24.1H69.29a24.1,24.1,0,0,1,24.1,24.1Z"/><path class="cls-1" d="M186.72,203h97.53l-6-102.69a24.1,24.1,0,0,0-24.1-24.1H216a24.1,24.1,0,0,0-24.1,24.1Z"/><ellipse class="cls-2" cx="87.17" cy="140.94" rx="35.54" ry="17.16"/><ellipse class="cls-2" cx="201.05" cy="139.53" rx="38.28" ry="15.74"/><ellipse class="cls-3" cx="144.52" cy="136.01" rx="15.01" ry="19.26"/><ellipse class="cls-3" cx="45.56" cy="35" rx="31.34" ry="29.56" transform="translate(-11.17 25.93) rotate(-28.45)"/><ellipse class="cls-3" cx="244.99" cy="30.14" rx="29.56" ry="31.34" transform="translate(81.82 215.36) rotate(-55.63)"/><ellipse class="cls-2" cx="285.46" cy="48.36" rx="12.46" ry="41.77" transform="translate(-0.81 91.65) rotate(-18.21)"/><polyline class="cls-1" points="26.7 110.7 53.42 152.74 126.37 148.84 126.37 125.46 70.46 127.96 52.59 94.83"/><polyline class="cls-1" points="257.68 110.7 230.95 152.74 158.01 148.84 158.01 125.46 213.91 127.96 231.79 94.83"/><ellipse class="cls-1" cx="142.73" cy="136.06" rx="15.27" ry="16.68"/><circle class="cls-1" cx="236.86" cy="42.33" r="33.84"/><circle class="cls-1" cx="48.45" cy="42.33" r="33.84"/></g></g></svg>