<svg xmlns="http://www.w3.org/2000/svg" viewBox="0 0 218.2 157.77"><defs><style>.cls-1{fill:#231f20;}.cls-2{fill:#f9bab8;}.cls-3{fill:#c7bdb3;}.cls-4{fill:none;stroke:#231f20;stroke-miterlimit:10;stroke-width:2px;}</style></defs><g id="Layer_2" data-name="Layer 2"><g id="Layer_1-2" data-name="Layer 1"><path class="cls-1" d="M144.12,150.36v.32a3.75,3.75,0,0,0,.44,1.92,3.69,3.69,0,0,0,1,1.61,3.8,3.8,0,0,0,1.61,1,3.84,3.84,0,0,0,1.92.43l1.33-.18a5,5,0,0,0,2.21-1.29l.78-1a5,5,0,0,0,.68-2.52v-.32a5.13,5.13,0,0,0-5-5l-1.32.17a5,5,0,0,0-2.21,1.29l-.78,1a5,5,0,0,0-.69,2.53Z"/><ellipse class="cls-2" cx="202.96" cy="14.21" rx="15.24" ry="12.93"/><rect class="cls-3" x="141.4" y="124.87" width="22.27" height="28.92" rx="11.14" transform="translate(-28.56 39.9) rotate(-13.64)"/><polygon class="cls-4" points="213.61 8.77 193.47 1.29 144.98 131.85 148.06 154.54 165.13 139.33 213.61 8.77"/><line class="cls-4" x1="144.98" y1="131.85" x2="165.12" y2="139.33"/><line class="cls-4" x1="187.72" y1="16.76" x2="207.66" y2="24.8"/><line class="cls-4" x1="186.25" y1="20.78" x2="206.2" y2="28.81"/><path class="cls-4" d="M148.86,152.44a53.57,53.57,0,0,1-20.93,4.33c-6.05,0-12.75-1.37-16.34-6.25-3.26-4.42-3.26-10.83-7.14-14.72-2.86-2.87-7.15-3.66-11.16-4.22A255,255,0,0,0,42,129.69c-11,.71-22.4,2.09-32.86-1.47-3.66-1.25-7.53-3.64-8.08-7.47s2.68-7.36,5.66-10.06"/></g></g></svg>