<svg xmlns="http://www.w3.org/2000/svg" viewBox="0 0 229.61 238.41"><defs><style>.cls-1{fill:#f9bab8;}.cls-2{fill:#231f20;}.cls-3{fill:#c7bdb3;stroke:#231f20;stroke-miterlimit:10;stroke-width:0.75px;}</style></defs><g id="Layer_2" data-name="Layer 2"><g id="Layer_1-2" data-name="Layer 1"><ellipse class="cls-1" cx="106.85" cy="61.29" rx="17.39" ry="56.09"/><ellipse class="cls-1" cx="174.73" cy="83.39" rx="50.73" ry="20.19" transform="translate(-15.8 117.79) rotate(-35.75)"/><ellipse class="cls-1" cx="144.84" cy="189.81" rx="20.19" ry="50.73" transform="translate(-52.07 54.78) rotate(-18.21)"/><ellipse class="cls-1" cx="83.79" cy="174.42" rx="50.73" ry="14.25" transform="translate(-103.74 126.71) rotate(-50.07)"/><ellipse class="cls-1" cx="50.39" cy="128.83" rx="50.73" ry="18.1" transform="translate(-15.49 7.19) rotate(-7.08)"/><ellipse class="cls-1" cx="64.6" cy="83.39" rx="18.1" ry="50.73" transform="translate(-40.8 79.4) rotate(-50.07)"/><ellipse class="cls-1" cx="180.47" cy="139.68" rx="20.19" ry="50.73" transform="translate(-2.8 275.67) rotate(-74.32)"/><ellipse class="cls-1" cx="147.7" cy="56.49" rx="52.32" ry="12.78" transform="translate(39.1 171.44) rotate(-67.55)"/><path class="cls-2" d="M106.83,112A124.65,124.65,0,0,1,90.29,69.59a122.9,122.9,0,0,1-2.18-22.72,95.57,95.57,0,0,1,2.3-22.94C92.05,17.21,95,9.63,101,5.7c2.47-1.61,5.6-2.67,8.45-1.43,2.68,1.16,4.19,3.85,5.08,6.49a56.47,56.47,0,0,1,2,10.23q.87,6.2,1.37,12.44a235.9,235.9,0,0,1,.73,25.08A231.11,231.11,0,0,1,112,108.37c-.49,2-1,4-1.56,5.95a1.88,1.88,0,0,0,3.63,1A236.29,236.29,0,0,0,122.28,63,232.13,232.13,0,0,0,122,36.5q-.47-6.61-1.3-13.19a92,92,0,0,0-1.91-11.68c-.81-3.13-2.13-6.36-4.51-8.63A10.94,10.94,0,0,0,104.77.16C97.29,1.37,92.24,8.44,89.45,14.91c-3.22,7.48-4.35,15.67-4.86,23.74a125.31,125.31,0,0,0,.83,24.18,128.92,128.92,0,0,0,15.08,45.88q1.47,2.66,3.08,5.22c1.27,2,4.53.17,3.25-1.9Z"/><path class="cls-2" d="M113.3,117.68c-3.47-17.5.53-35.45,7.31-51.66a165.05,165.05,0,0,1,11.74-22.78,91.22,91.22,0,0,1,14.14-18A46.91,46.91,0,0,1,165.1,13.76a20.68,20.68,0,0,1,5.33-1.13c2,0,2.35,1.23,2.42,3a38.51,38.51,0,0,1-2,13c-2.69,8.47-7.25,16.31-11.46,24.09S151,68,146.38,75.43c-9.07,14.75-19.28,28.88-31.53,41.17-1.53,1.54-3.1,3-4.69,4.51-1.78,1.65.89,4.31,2.66,2.66,13.43-12.45,24.61-27.13,34.39-42.56,4.9-7.73,9.47-15.67,13.87-23.7s9.2-16.36,12.45-25.11a47.2,47.2,0,0,0,3-13.67,15.54,15.54,0,0,0-.54-6.44,5.41,5.41,0,0,0-4.87-3.4,18,18,0,0,0-5.81.89,41.29,41.29,0,0,0-5.42,1.87,47.6,47.6,0,0,0-10.3,6c-13.32,10-22.28,25.18-29.34,40-8,16.78-13.63,35.5-11.65,54.26q.36,3.44,1,6.82c.47,2.38,4.09,1.37,3.62-1Z"/><path class="cls-2" d="M119.59,121.63a94.53,94.53,0,0,1,51.34-47.72,89.36,89.36,0,0,1,8.88-2.9,40.68,40.68,0,0,1,8-1.59c2.29-.13,4.82,0,6.84,1.2a4.83,4.83,0,0,1,1.76,6.16c-1.19,2.94-3.83,5.18-6.24,7.11q-4,3.21-8.22,6.15a162.53,162.53,0,0,1-17.61,10.69,157.44,157.44,0,0,1-21.21,9.2c-3.71,1.31-7.48,2.47-11.28,3.49-3.58,1-7.86,2.62-11.51,1.3-2.28-.83-3.27,2.81-1,3.63,3.66,1.33,7.6.22,11.23-.7s7-1.92,10.51-3.05a164.74,164.74,0,0,0,20.55-8.31A161.29,161.29,0,0,0,181,95.22q4.56-3,8.9-6.38A40.79,40.79,0,0,0,198,81.45c2-2.7,3.41-6.21,2.23-9.56a9,9,0,0,0-5.68-5.45c-5.55-2-12-.17-17.36,1.4a97.88,97.88,0,0,0-34.2,18,96.56,96.56,0,0,0-24.48,29.52q-1.16,2.15-2.17,4.35c-1,2.18,2.22,4.09,3.25,1.9Z"/><path class="cls-2" d="M119.08,121.12a93.59,93.59,0,0,1,46.15-5c13.53,2,27.67,6.79,37.58,16.61a38,38,0,0,1,6,7.64c1.54,2.61,3.16,6,2.2,9.12-1.06,3.42-5.47,4.37-8.59,4.41-3.91.06-7.72-1.12-11.39-2.35-16.45-5.49-32.82-11.22-49.22-16.84-7.13-2.44-14.43-4.6-21.35-7.59-5.51-2.39-11.19-5.51-14.82-10.45a22.75,22.75,0,0,1-2.31-4,1.9,1.9,0,0,0-2.57-.68,1.93,1.93,0,0,0-.68,2.58c6.08,13.25,22.25,17.41,34.82,21.71l52.43,17.94c7.27,2.49,16.89,5.93,23.9.87s2.91-14-1-19.52c-8.58-11.92-22.7-18.52-36.67-21.74a97.28,97.28,0,0,0-49.47,1.56q-3,.92-6,2c-2.25.84-1.27,4.48,1,3.63Z"/><path class="cls-2" d="M117.14,122.86A143.55,143.55,0,0,1,137,163.62a144.72,144.72,0,0,1,6.28,44.91q-.12,5.7-.69,11.38c-.11,1.1-.12,3.13-1.18,3.82s-2.7-1.18-3.3-2a80.08,80.08,0,0,1-5.76-9.63q-2.7-5-5-10.12A148.86,148.86,0,0,1,117,114.09q.54-2.78,1.18-5.52c.55-2.36-3.08-3.37-3.63-1A149.91,149.91,0,0,0,111.36,155a154.12,154.12,0,0,0,11.52,46,146.38,146.38,0,0,0,11,21.1c1.86,2.94,5.13,7,9.1,5,3.4-1.69,3.34-6.33,3.61-9.57A147,147,0,0,0,142.69,170a147.31,147.31,0,0,0-19-44.09c-1.07-1.65-2.17-3.29-3.31-4.9-1.38-2-4.64-.09-3.25,1.9Z"/><path class="cls-2" d="M114.66,121.53a123,123,0,0,1,32.41,26.75,125.48,125.48,0,0,1,21.7,35.89,121.46,121.46,0,0,1,6,20.18,20.59,20.59,0,0,1,.62,4.54c0,1-.1,2.48-1,3.05-1.3.84-3.06-1.09-3.91-1.87q-2.08-1.9-4.08-3.9a144.55,144.55,0,0,1-40.31-78.4q-.47-2.73-.79-5.48a2,2,0,0,0-1.89-1.89,1.9,1.9,0,0,0-1.88,1.89,148.21,148.21,0,0,0,40.23,84.53c1.35,1.4,2.73,2.78,4.14,4.12a26.12,26.12,0,0,0,4.75,4,5.34,5.34,0,0,0,8.12-3.31c.95-3.32-.06-6.92-.78-10.18-.8-3.65-1.78-7.25-2.91-10.81a129.35,129.35,0,0,0-20.91-39.62,127.58,127.58,0,0,0-32.88-30q-2.33-1.47-4.73-2.82c-2.11-1.2-4,2-1.9,3.25Z"/><path class="cls-2" d="M116.86,119.57a310.06,310.06,0,0,1-17.39,38.16c-3.25,6-6.66,11.92-10.34,17.66A83.6,83.6,0,0,1,77.76,190a45.09,45.09,0,0,1-7.24,5.9c-1,.65-2.44,1.82-3.72,1.66s-1.92-2.11-2.24-3.22C62.81,188.06,66,181.45,68.94,176a241.9,241.9,0,0,1,20.38-32.31,151,151,0,0,1,13.84-15.85c2.5-2.47,5.1-4.85,7.79-7.11a52.93,52.93,0,0,1,4.35-3.4c1.42-.95,3.15-1.94,4.94-1.66a1.94,1.94,0,0,0,2.31-1.32,1.89,1.89,0,0,0-1.31-2.31c-3.89-.61-7,1.32-10,3.63q-4,3.14-7.7,6.59A145.32,145.32,0,0,0,89.76,137.1a230.83,230.83,0,0,0-22.65,34.4c-3.34,6.09-7.11,12.86-6.77,20.05.15,3.09,1,7,3.72,8.9,3.17,2.16,6.71-.1,9.39-1.95,11.35-7.83,18.67-20.22,25.4-31.95a314.92,314.92,0,0,0,21.64-46c.85-2.27-2.79-3.25-3.63-1Z"/><path class="cls-2" d="M114.63,119.18A191.49,191.49,0,0,1,79.49,135c-6,2-12,3.69-18.17,5.09q-4.82,1.09-9.69,1.95a51,51,0,0,1-9.37,1.11,11.56,11.56,0,0,1-11-8.63c-1.51-5,.12-10.27,3.22-14.38,3.49-4.65,8.71-7.65,14.08-9.62a101,101,0,0,1,19.09-4.62,132.88,132.88,0,0,1,45.23.74c2.37.44,3.38-3.18,1-3.63a137.43,137.43,0,0,0-43.45-1.28A118.36,118.36,0,0,0,50,106c-6.14,1.95-12.19,4.84-16.66,9.59-4,4.2-6.8,9.89-6.46,15.77.32,5.41,3.13,10.81,7.89,13.59,5.88,3.43,13.32,1.5,19.59.35a192.43,192.43,0,0,0,19.66-4.7,195.88,195.88,0,0,0,42.47-18.21c2.1-1.21.21-4.47-1.9-3.25Z"/><path class="cls-2" d="M104.9,124.46c-.86,1.39-12.24-7.67-13.45-8.59q-7.77-5.93-15.07-12.41T62.22,90q-3.47-3.54-6.79-7.2a60.24,60.24,0,0,1-5.77-7.08,18.22,18.22,0,0,1-3.13-7.52c-.29-2.27-.13-5.17,2.67-5.41,2.6-.22,5.22,1.17,7.44,2.34a58.6,58.6,0,0,1,8,5.14A152.5,152.5,0,0,1,79,83q7.29,7.13,14,14.84c9.37,10.84,17.11,23.42,28.25,32.61a1.94,1.94,0,0,0,2.66,0,1.9,1.9,0,0,0,0-2.66c-10.79-8.9-18.33-21-27.34-31.55Q89.47,88,81.68,80.35A148.61,148.61,0,0,0,65.5,66.23,54.59,54.59,0,0,0,57,61.08c-2.62-1.25-5.46-2.37-8.42-2-7.45.91-6.41,10-4.14,15,2.72,6,7.84,10.94,12.32,15.66q7.43,7.83,15.46,15,8.87,8,18.41,15.16c3.11,2.34,6.24,4.69,9.49,6.83,2.44,1.61,6.2,2.58,8-.4,1.27-2.07-2-4-3.25-1.9Z"/><path class="cls-2" d="M114.19,113.72a9,9,0,0,1,1.37-9,8.33,8.33,0,0,1,8.74-2.48c3.63,1,5.56,4,6.42,7.56.42,1.73,1.08,4.17.24,5.85s-2.91,2.19-4.51,2.36a10.28,10.28,0,0,1-5.77-1c-.32-.16-.89-.67-1.22-.72s-.09-.57-.26.23-.14.26.06.3a5.28,5.28,0,0,0,.8-.15,6.39,6.39,0,0,1,1.45.09c3.65.52,7.06,3.09,7.4,7s-3.25,6.78-6.62,8.1a14.83,14.83,0,0,1-11.24-.12,14,14,0,0,1-8.16-9.2,6,6,0,0,1,1.17-5.49,4.06,4.06,0,0,1,4.42-1.21c2.27.84,3.26-2.8,1-3.63-5.16-1.89-10,2.74-10.5,7.67-.54,5.55,3.28,10.81,7.7,13.75a18.46,18.46,0,0,0,15.65,2.19c5.07-1.6,10.28-5.55,10.37-11.31s-4.41-10.23-9.8-11.27c-2.26-.44-5.51-.67-6.9,1.63-1.8,3,1.86,5.14,4.16,6.05,4.69,1.87,12.33,1.33,14.42-4.13,1-2.61.34-5.88-.39-8.5a14.26,14.26,0,0,0-3.91-6.85c-4-3.67-10.69-4.43-15.25-1.21a12.64,12.64,0,0,0-4.47,14.62,1.94,1.94,0,0,0,2.31,1.32,1.9,1.9,0,0,0,1.32-2.32Z"/><path class="cls-2" d="M107.78,117a20.78,20.78,0,0,1-11.73-1.81c-3.15-1.53-7.39-4.36-7.89-8.16-.57-4.28,4.11-4.85,7.3-4.33a16.38,16.38,0,0,1,9,4.81A15.37,15.37,0,0,1,109,117.79l1.38-1.81c.33.17.44.13.33-.1-1-2.19-4.27-.28-3.25,1.9a3.51,3.51,0,0,0,3.92,1.83,1.89,1.89,0,0,0,1.38-1.82A20.06,20.06,0,0,0,96.46,99c-4.63-.79-10.67,0-11.88,5.44-1.18,5.26,2.84,9.65,6.87,12.37a24.06,24.06,0,0,0,16.33,3.87,2,2,0,0,0,1.88-1.88,1.9,1.9,0,0,0-1.88-1.88Z"/><path class="cls-2" d="M106.4,114.34a15,15,0,0,0-12.55-.2A21.93,21.93,0,0,0,84,122.89,41.39,41.39,0,0,0,80.86,129c-.87,2-1.66,4.22-1.21,6.47.92,4.64,6.22,5.06,9.93,3.9a19.06,19.06,0,0,0,11-9c.83-1.53-1-3.74-2.57-2.57a20.85,20.85,0,0,0-8.63,19.35,7.18,7.18,0,0,0,2.8,5.22,8.42,8.42,0,0,0,5.31,1.36,13,13,0,0,0,9.36-5.69c2.75-3.82,3.44-8.7,4.06-13.24l-3.7-.5c-.35,3.65-.57,7.68,1.62,10.86a7.61,7.61,0,0,0,8.46,3.35,12,12,0,0,0,7.14-6.36c1.16-2.54,1.67-5.75,0-8.18-1-1.36-2.41-2.39-4-1.38a3.83,3.83,0,0,0-1.55,3.66,11.47,11.47,0,0,0,1.53,4.27,31.88,31.88,0,0,0,2.33,3.9,14.73,14.73,0,0,0,7.08,5.75,6.91,6.91,0,0,0,5,0,6.07,6.07,0,0,0,3-3.64c2.48-6.36-.44-14.07-6.2-17.56-2.07-1.26-4,2-1.9,3.25a10.89,10.89,0,0,1,4.89,6.87,11,11,0,0,1,.24,4c-.15,1.11-.53,3.24-1.71,3.71s-3.15-.52-4.19-1.23a12.42,12.42,0,0,1-3-3.06,33.12,33.12,0,0,1-2.41-4.06,8.78,8.78,0,0,1-.86-2c0-.14-.06-.55-.1-.69-.16-.54.21-.15-.27,0l-1.45-.19c1.37,1,.91,3.15.38,4.46a8.64,8.64,0,0,1-4.39,4.61c-2.14.92-4.08-.14-5.16-2.06-1.4-2.49-1-5.63-.71-8.34.2-2.09-3.42-2.61-3.7-.5-.56,4.09-1.08,8.53-3.46,12-1.81,2.65-5.54,5.19-8.85,3.8-1.78-.74-1.94-2.69-2-4.39a16.59,16.59,0,0,1,.74-5.42,16.86,16.86,0,0,1,6.19-8.77l-2.58-2.58a15.45,15.45,0,0,1-6.88,6.57c-1.6.78-6.52,2.56-7.11-.37-.3-1.47.54-3.19,1.12-4.5a40.8,40.8,0,0,1,2.41-4.7,19.32,19.32,0,0,1,7.24-7.31c3.16-1.69,7.13-2.23,10.42-.58,2.16,1.08,4.06-2.17,1.9-3.25Z"/><path class="cls-2" d="M105.81,99.79a118.86,118.86,0,0,1-3.88-13.37c-.52-2.3-1-4.62-1.34-7a47.81,47.81,0,0,1-.82-6.41c0-.3.13-1.37.11-1.36s.46.36.6.45c.43.28.85.58,1.26.89A25.67,25.67,0,0,1,105.88,77a21.24,21.24,0,0,1,4.8,10.09,17.86,17.86,0,0,1-2.52,12.69l3.44,1.45A12.1,12.1,0,0,1,125.15,92a12.56,12.56,0,0,1,4.32,1.54,10.34,10.34,0,0,1,1.89,1.39c.57.54.47.68-.07,1.24A15.48,15.48,0,0,1,126.77,99a24,24,0,0,1-5.19,1.68l1.45,3.44c6.6-2.86,15.6-2,21,3,1.19,1.09,2.53,2.65,2.4,4.38s-2,3.42-3.33,4.49c-2.47,2-6.09,3.63-9.09,1.83l.38,2.95c1.1-.86,2.87-.27,3.85.48a9.66,9.66,0,0,1,2.75,4.51,67.35,67.35,0,0,1,3.18,12.65,9.52,9.52,0,0,1,.15,1.18c0,.31-.15.7.13.61-.61.19-1.64-.67-2.07-1a55.06,55.06,0,0,1-5-3.8,30.77,30.77,0,0,1-4.4-4.29c-.43-.57-1.58-2.63-.26-3,2.3-.72,1.32-4.35-1-3.63a4.78,4.78,0,0,0-3.32,4.24c-.22,2.22,1,4.16,2.47,5.72a48.56,48.56,0,0,0,5.23,4.81,31.92,31.92,0,0,0,5.65,4c1.93.94,4.4,1,5.68-1s.38-4.68,0-6.74c-.85-4.61-1.94-9.63-4.15-13.8s-7.42-6.92-11.61-3.64a1.91,1.91,0,0,0,.38,3c3.29,2,7.13,1.44,10.41-.24,3.1-1.59,6.89-4.65,7.55-8.26.75-4.12-2.31-7.61-5.48-9.75a24.7,24.7,0,0,0-23.47-1.92c-2,.88-.53,3.85,1.44,3.44a26.31,26.31,0,0,0,10.26-4.56c1.39-1,2.71-2.47,2.72-4.32s-1.39-3.15-2.78-4.19A15.83,15.83,0,0,0,114,91.11,16.2,16.2,0,0,0,108,100.2a1.89,1.89,0,0,0,3.44,1.45c5.4-8.41,3.68-19.2-2.38-26.75A28.64,28.64,0,0,0,104,70c-1.78-1.35-4.11-3-6.26-1.34C96,69.93,95.9,72.22,96.1,74.12c.3,2.83.71,5.65,1.22,8.44a115.85,115.85,0,0,0,4.87,18.23c.8,2.27,4.44,1.29,3.62-1Z"/><ellipse class="cls-3" cx="112.58" cy="117.02" rx="14.05" ry="18.11"/></g></g></svg>