<svg xmlns="http://www.w3.org/2000/svg" viewBox="0 0 223.91 228.06"><defs><style>.cls-1{fill:#8ccecc;}.cls-2{fill:#c7bdb3;}.cls-3{fill:none;stroke:#231f20;stroke-miterlimit:10;stroke-width:2.7px;}.cls-4{fill:#231f20;}</style></defs><g id="Layer_2" data-name="Layer 2"><g id="Layer_1-2" data-name="Layer 1"><circle class="cls-1" cx="112.38" cy="111.95" r="103.96"/><ellipse class="cls-2" cx="160.7" cy="128.13" rx="31.57" ry="43.04"/><ellipse class="cls-2" cx="156.35" cy="59.58" rx="63.48" ry="30.78"/><ellipse class="cls-2" cx="20" cy="133.07" rx="15.35" ry="38.91" transform="translate(-22.28 5.32) rotate(-9.77)"/><ellipse class="cls-2" cx="30.33" cy="47.48" rx="38.91" ry="15.35" transform="translate(-25.95 44.87) rotate(-54.77)"/><ellipse class="cls-2" cx="83.31" cy="20.42" rx="19.45" ry="15.35" transform="translate(18.57 76.69) rotate(-54.77)"/><ellipse class="cls-2" cx="107.86" cy="207.84" rx="64.26" ry="19.74" transform="translate(-14.47 8.18) rotate(-4.07)"/><circle class="cls-3" cx="111.95" cy="111.95" r="110.61"/><path class="cls-4" d="M51.57,203.58c2.07-2.73,6.38-2.75,9.46-2.83a83.57,83.57,0,0,1,14.23.77c4.54.64,9.11,2.16,13.72,2.06,4.27-.09,7.9-2.13,11.86-3.44,4.57-1.51,9-.64,13.59.49l14,3.5,14,3.51c4.12,1,8.95,3,13.09,1.1,1.07-.48,2-1.22,3.07-1.69a5,5,0,0,1,3.16-.22c2.15.48,4.13,1.59,6.31,1.9,3.21.47,7.6-.63,8.16-4.39a1.74,1.74,0,0,0-1.18-2.07,1.69,1.69,0,0,0-2.07,1.18c-.46,3.05-4.93,1.92-6.81,1.26a16.81,16.81,0,0,0-6-1.41c-2.17.08-3.74,1.18-5.58,2.16-2,1.06-4.12.68-6.22.18-2.32-.56-4.63-1.16-7-1.73l-14-3.51c-4.65-1.16-9.29-2.4-14-3.48-4.43-1-8.9-1.51-13.31-.1-4,1.27-7.6,3.47-11.87,3.39a37.46,37.46,0,0,1-6.65-1c-2.27-.46-4.56-.85-6.86-1.15a84.9,84.9,0,0,0-15.53-.63c-4,.23-8,1.09-10.58,4.44a1.71,1.71,0,0,0,.61,2.31,1.74,1.74,0,0,0,2.31-.61Z"/><path class="cls-4" d="M160.54,87.23c-6.09-5-14.77-4.75-21.46-1.08-7.42,4.06-12.06,11.86-15.3,19.4-1.77,4.12-2.5,8.19-.61,12.4,1.63,3.62,4.69,6.41,7.81,8.74s6.46,4.19,9.31,6.8a16.69,16.69,0,0,1,3.45,4.26,13.64,13.64,0,0,1,1.43,6.5c0,4.63-.81,9.14.16,13.73A24.69,24.69,0,0,0,151,169.11a17,17,0,0,0,10.63,6,13.31,13.31,0,0,0,10.28-3.67c6.76-6.08,7.14-15.31,8.59-23.65a52.69,52.69,0,0,1,4.22-12.88,82.91,82.91,0,0,0,5-12.26A28.46,28.46,0,0,0,165.42,86.5a27.38,27.38,0,0,0-6.07,0c-2.14.22-2.16,3.59,0,3.37a25.1,25.1,0,0,1,27.94,27.1c-.62,8-5.4,15-8.11,22.38a61.37,61.37,0,0,0-2.75,12.59c-.58,4-1.17,8.17-3,11.82a15.4,15.4,0,0,1-6.77,7.2c-3.31,1.57-6.95.79-9.91-1.15a19.39,19.39,0,0,1-7-8.82c-1.58-3.85-1.72-7.77-1.44-11.87s.51-8.45-1.35-12.39c-1.47-3.13-4.07-5.55-6.77-7.63-5.26-4-13.1-7.5-14.68-14.62-.87-3.89,1.39-7.94,3.09-11.3A40.29,40.29,0,0,1,135,93.65c4.78-5.07,11.93-8.34,18.91-6.27a12.12,12.12,0,0,1,4.25,2.23c1.67,1.37,4.07-1,2.39-2.38Z"/><path class="cls-4" d="M195.53,152.05a6.5,6.5,0,0,0-6.61,0,14,14,0,0,0-4.57,4.69,9.73,9.73,0,0,0-1.92,6.16,6.05,6.05,0,0,0,3.32,5.11,9.52,9.52,0,0,0,6.51.1,15.44,15.44,0,0,0,5.76-2.83,10.7,10.7,0,0,0,3.24-5.57,16.73,16.73,0,0,0,.82-6,4.68,4.68,0,0,0-4.87-4.43,4.53,4.53,0,0,0-4,5.53,1.69,1.69,0,0,0,3.25-.9,1.11,1.11,0,0,1,1.45-1.21c1,.32.93,1.77.84,2.64a20.26,20.26,0,0,1-.9,4.14,6.72,6.72,0,0,1-2.21,3.47,11.59,11.59,0,0,1-3.77,1.79,8.18,8.18,0,0,1-3.91.5,2.59,2.59,0,0,1-2.12-2.3,5.67,5.67,0,0,1,.94-3.66c1.25-2.13,4.18-6.19,7.08-4.33,1.83,1.18,3.53-1.74,1.7-2.91Z"/><path class="cls-4" d="M123.52,46.63a22.94,22.94,0,0,1-14.73,10.75c-3.32.75-6.82,1-9.82,2.77a14,14,0,0,0-5.59,6.37,13.48,13.48,0,0,0,3.31,15.76,14.29,14.29,0,0,0,16.24,1.8c5.65-2.91,9.5-8.55,15.41-11l-1.91-.78c2.18,4.2,4.6,8.63,8.75,11.18,3.34,2,8.11,2.49,11.53.36s3.56-6,5.41-9.23c2.21-3.86,5.54,2.42,7.09,3.88,3,2.86,7.2,3.38,11.14,3.88,3.78.48,7.8,1,10.19,4.33,2.54,3.53,4,7.77,8.53,9.17,3.94,1.2,8.06-.14,12-.52,2.12-.21,4.35-.21,6.21,1,2.24,1.44,3.54,4,5.7,5.56,2,1.47,4.83,2.25,7.06.78,2-1.33,3.1-4,1.74-6.2-1.15-1.83-4.07-.14-2.91,1.71.35.55,0,1.11-.46,1.51a2.26,2.26,0,0,1-2.4.11c-2-.89-3.3-3-4.79-4.5-3-3.08-6.72-3.75-10.83-3.26-3.45.41-7.67,1.81-11,.36-3.54-1.53-4.64-6.13-7-8.84-2.61-2.93-6.46-3.83-10.19-4.34-3.4-.46-7.57-.54-10.31-2.9s-4.25-6.82-8.52-6.33c-3.77.44-4.79,4.36-5.89,7.37-.64,1.74-1.49,3.3-3.3,4a8.2,8.2,0,0,1-5.61,0c-4.6-1.58-7.08-6.74-9.16-10.75a1.69,1.69,0,0,0-1.91-.77c-5.08,2.12-8.7,6.16-13.06,9.36a16.11,16.11,0,0,1-6.86,3.24,10.49,10.49,0,0,1-7.24-1.64,10.15,10.15,0,0,1-3.7-13.17A10.47,10.47,0,0,1,102,62.43c3-1.22,6.24-1.3,9.29-2.19a26.41,26.41,0,0,0,15.19-11.91,1.69,1.69,0,0,0-2.91-1.7Z"/><path class="cls-4" d="M124.76,48.83c4.28-2,3.31-7.36,2.72-11.1-.35-2.18-.38-4.43,1.85-5.54a20.28,20.28,0,0,1,7-1.58,31.41,31.41,0,0,1,14.29,2.08,33.43,33.43,0,0,1,6.5,3.58,18.33,18.33,0,0,0,6.69,3.28,8.36,8.36,0,0,0,7.6-2.15c2.42-2.23,4.67-4.66,7-7A1.69,1.69,0,0,0,176,28c-2.07,2.08-4.14,4.17-6.22,6.24a6.47,6.47,0,0,1-2.84,2A6.23,6.23,0,0,1,163.5,36c-2.33-.74-4.27-2.41-6.3-3.7a34.58,34.58,0,0,0-6.68-3.23,33.9,33.9,0,0,0-14.44-1.81c-4.25.4-10.36,1.2-11.83,6-.78,2.52,0,5.1.37,7.6.25,1.76.28,4.2-1.56,5.08s-.25,3.84,1.7,2.91Z"/><path class="cls-4" d="M113.31,26.83c-2.21-3.31-6.68-6-10.73-4.54-4.22,1.55-5.31,6.53-3.94,10.43a17.24,17.24,0,0,0,3.9,5.86c1.53,1.64,3.06,3.37,4.67,4.93s4.22,2.73,6.51,1.58,2.4-4.07,2.51-6.37a18.85,18.85,0,0,0-1-8.2A9.56,9.56,0,0,0,110,25.15a1.69,1.69,0,0,0-2.07,1.18,1.72,1.72,0,0,0,1.18,2.07c3.09,1.29,3.79,5.3,3.8,8.23,0,1,0,2-.1,3a4.93,4.93,0,0,1-.36,2.22c-.75,1.17-2.47-.29-3.07-.9-1.22-1.24-2.37-2.56-3.59-3.82a20.62,20.62,0,0,1-3.41-4.22c-1.12-2-1.62-5.42.54-7,2.49-1.82,6.06.52,7.48,2.65,1.2,1.8,4.12.11,2.91-1.7Z"/><path class="cls-4" d="M2.24,97.75c6.22-2.45,13.35-.36,19.46,1.51,5.1,1.57,10.65,4,13.32,8.89,3.21,5.92.8,13.19-1.74,18.89-2.75,6.18-6,12.37-6,19.32,0,2.08.29,4.14.25,6.22a32.94,32.94,0,0,1-.68,6,88.22,88.22,0,0,1-3.69,12.12c-.73,2.05,2.52,2.93,3.25.9a96.3,96.3,0,0,0,3.5-11.21,41.08,41.08,0,0,0,.85-11.65,26.89,26.89,0,0,1,1.49-10.93c1.22-3.46,2.9-6.73,4.35-10.09,2.78-6.44,4.82-14,1.62-20.66-2.64-5.53-8.37-8.59-13.91-10.5a68.88,68.88,0,0,0-10.83-2.79C9.44,93.1,5.24,93,1.34,94.5c-2,.78-1.12,4,.9,3.25Z"/><path class="cls-4" d="M8.5,85.15c0-3.58,2.52-6.46,5.39-8.31,3.51-2.27,7.68-3.19,11.52-4.75s7-3.5,9.36-6.79A11.1,11.1,0,0,0,36,54.59a8.82,8.82,0,0,1-.6-5.14,10.72,10.72,0,0,1,2.41-4.58,18.23,18.23,0,0,1,9.8-5.47c4.29-1,8.71-1.33,13-2.27,1.88-.4,3.94-.88,4.91-2.73.86-1.64.6-3.76.19-5.49a14,14,0,0,0-7.32-9.23c-3.15-1.52-7.64-1.4-9,2.35-.76,2,2.49,2.91,3.25.9C53,22,54.53,22,55.3,22.16a7.79,7.79,0,0,1,3.79,2A11.19,11.19,0,0,1,61.9,28c.55,1.24,1.2,3.25.78,4.62-.23.76-1.12.87-1.8,1-1,.26-2.08.47-3.12.66-2,.35-4.07.62-6.1.93-3.83.59-7.77,1.37-11.2,3.28a17.77,17.77,0,0,0-7.12,7,11.81,11.81,0,0,0-.62,9.76,8.6,8.6,0,0,1,.69,5A9.72,9.72,0,0,1,31,64.6C28.47,67.39,25,68.75,21.45,70c-3.92,1.37-7.87,2.67-11.14,5.32a12.75,12.75,0,0,0-5.18,9.85c0,2.17,3.39,2.17,3.37,0Z"/><path class="cls-4" d="M81.86,8c1.77,2.64,4.93,3.4,8,3,2-.28,3.8-1,5.74-1.33a18.93,18.93,0,0,1,5.77.18,27.77,27.77,0,0,0,11.3-.48A64.42,64.42,0,0,0,123.44,5c2-.93.24-3.84-1.71-2.91a61.85,61.85,0,0,1-9.35,3.84,24,24,0,0,1-10.16.66,32,32,0,0,0-5.07-.45,21.14,21.14,0,0,0-4.92.85c-2.19.59-5.87,1.69-7.46-.69-1.2-1.79-4.12-.1-2.91,1.71Z"/><path class="cls-4" d="M66.41,13.05c-.62,3-1.09,6.14.49,8.93,1.23,2.17,3.35,3.55,5.23,5.09a9.25,9.25,0,0,1,3.7,6.76c.27,2.63-.27,6.38,1.83,8.39s5.63.81,7.1-1.46A11.63,11.63,0,0,0,86.16,37c.42-1.88.79-3.78,1.12-5.67.61-3.46,1.15-7,1.44-10.47a4.66,4.66,0,0,0-1-3.69c-1-1.15-2.32-2-3.33-3.16s-1.75-2.88-2.83-4.16a5.33,5.33,0,0,0-4.48-1.67A20.92,20.92,0,0,0,66.72,11.1,1.69,1.69,0,0,0,68.42,14a17.53,17.53,0,0,1,7.36-2.44c1-.08,2.51-.37,3.25.46s1.32,2.2,2.06,3.19a19.92,19.92,0,0,0,2.34,2.6c.79.72,2,1.26,2,2.43a56.52,56.52,0,0,1-1.08,8.48c-.44,2.71-.91,5.45-1.59,8.12-.25,1-.58,2.32-1.57,2.85s-1.4-.08-1.57-1c-.45-2.43-.21-4.93-.74-7.37a10.87,10.87,0,0,0-3.19-5.65c-1.6-1.54-3.58-2.66-5.06-4.33-1.9-2.13-1.46-4.82-.93-7.41.43-2.12-2.82-3-3.25-.89Z"/></g></g></svg>